<svg id="Capa_1" enable-background="new 0 0 512 512" fill="#eb2f64" height="512" viewBox="0 0 512 512" width="512" xmlns="http://www.w3.org/2000/svg"><g><path d="m383.5 467h-22.5c-22.847 0-33.973-12.715-46.855-27.439-7.609-8.696-15.802-18.049-26.925-24.491 3.885-4.045 6.28-9.531 6.28-15.57 0-9.777-6.271-18.114-15-21.21v-17.58c8.729-3.096 15-11.432 15-21.21s-6.271-18.114-15-21.21v-17.053c14.784-3.014 26.436-14.746 29.314-29.579 34.033-3.426 60.686-32.238 60.686-67.159 0-47.146 14.04-70.195 28.905-94.598 15.287-25.096 31.095-51.047 31.095-102.401 0-4.142-3.357-7.5-7.5-7.5h-330c-4.143 0-7.5 3.358-7.5 7.5 0 51.354 15.808 77.305 31.095 102.402 14.865 24.403 28.905 47.452 28.905 94.598 0 34.921 26.652 63.732 60.686 67.159 2.878 14.833 14.53 26.565 29.314 29.579v17.053c-8.729 3.096-15 11.432-15 21.21s6.271 18.114 15 21.21v17.58c-8.729 3.096-15 11.432-15 21.21 0 6.038 2.396 11.524 6.28 15.57-11.123 6.442-19.315 15.795-26.925 24.491-12.882 14.723-24.008 27.438-46.855 27.438h-22.5c-20.678 0-37.5 16.822-37.5 37.5 0 4.142 3.357 7.5 7.5 7.5h315c4.143 0 7.5-3.358 7.5-7.5 0-20.678-16.822-37.5-37.5-37.5zm-165-202.5c0-4.142-3.357-7.5-7.5-7.5-28.948 0-52.5-23.551-52.5-52.5 0-51.354-15.808-77.305-31.095-102.402-14.054-23.073-27.372-44.934-28.782-87.098h314.754c-1.41 42.164-14.728 64.025-28.782 87.098-15.287 25.097-31.095 51.048-31.095 102.402 0 28.949-23.552 52.5-52.5 52.5h-60c-4.143 0-7.5 3.358-7.5 7.5s3.357 7.5 7.5 7.5h51.215c-3.096 8.73-11.437 15-21.215 15h-30c-12.406 0-22.5-10.093-22.5-22.5zm45 37.5v15h-15v-15zm-22.5 30h30c4.136 0 7.5 3.364 7.5 7.5s-3.364 7.5-7.5 7.5h-30c-4.136 0-7.5-3.364-7.5-7.5s3.364-7.5 7.5-7.5zm22.5 30v15h-15v-15zm-22.5 30h30c4.136 0 7.5 3.364 7.5 7.5s-3.364 7.5-7.5 7.5h-30c-4.136 0-7.5-3.364-7.5-7.5s3.364-7.5 7.5-7.5zm-31.855 57.439c12.882-14.724 24.008-27.439 46.855-27.439s33.973 12.715 46.855 27.439c5.185 5.925 10.643 12.153 17.109 17.561h-127.93c6.468-5.408 11.926-11.636 17.111-17.561zm-101.86 47.561c3.096-8.73 11.437-15 21.215-15h255c9.778 0 18.119 6.27 21.215 15z"/></g></svg>